{
  "accessors": [
    {
      "bufferView": 2,
      "componentType": 5126,
      "count": 50495,
      "max": [
        58.502353668212891,
        222.76603698730469,
        543.2779541015625
      ],
      "min": [
        -39.493194580078125,
        -235.80671691894531,
        -5.1971278190612793
      ],
      "type": "VEC3"
    },
    {
      "bufferView": 2,
      "byteOffset": 605940,
      "componentType": 5126,
      "count": 50495,
      "max": [
        0.99999958276748657,
        0.99999916553497314,
        0.9999997615814209
      ],
      "min": [
        -0.99999982118606567,
        -0.99999934434890747,
        -0.99999797344207764
      ],
      "type": "VEC3"
    },
    {
      "bufferView": 3,
      "componentType": 5126,
      "count": 50495,
      "max": [
        1,
        1,
        1,
        1
      ],
      "min": [
        -0.9999815821647644,
        -1,
        -0.99994140863418579,
        -1
      ],
      "type": "VEC4"
    },
    {
      "bufferView": 1,
      "componentType": 5126,
      "count": 50495,
      "max": [
        0.99800801277160645,
        0.94260501861572266
      ],
      "min": [
        0.0019920000340789557,
        0.0018810000037774444
      ],
      "type": "VEC2"
    },
    {
      "bufferView": 0,
      "componentType": 5125,
      "count": 179994,
      "max": [
        50494
      ],
      "min": [
        0
      ],
      "type": "SCALAR"
    }
  ],
  "asset": {
    "extras": {
      "author": "IUPUI Center for Digital Scholarship (https://sketchfab.com/iupuicds)",
      "license": "CC-BY-4.0 (http://creativecommons.org/licenses/by/4.0/)",
      "source": "https://sketchfab.com/models/a3647f7a23a0455b8c0eb155f7157e10",
      "title": "Oil on Canvas of Caroline S. Harrison - Preview"
    },
    "generator": "Sketchfab-3.18.6",
    "version": "2.0"
  },
  "bufferViews": [
    {
      "buffer": 0,
      "byteLength": 719976,
      "byteOffset": 0,
      "name": "floatBufferViews",
      "target": 34963
    },
    {
      "buffer": 0,
      "byteLength": 403960,
      "byteOffset": 719976,
      "byteStride": 8,
      "name": "floatBufferViews",
      "target": 34962
    },
    {
      "buffer": 0,
      "byteLength": 1211880,
      "byteOffset": 1123936,
      "byteStride": 12,
      "name": "floatBufferViews",
      "target": 34962
    },
    {
      "buffer": 0,
      "byteLength": 807920,
      "byteOffset": 2335816,
      "byteStride": 16,
      "name": "floatBufferViews",
      "target": 34962
    }
  ],
  "buffers": [
    {
      "byteLength": 3143736,
      "uri": "scene.bin"
    }
  ],
  "images": [
    {
      "uri": "textures/material_0_baseColor.png"
    }
  ],
  "materials": [
    {
      "doubleSided": false,
      "name": "material_0",
      "pbrMetallicRoughness": {
        "baseColorFactor": [
          1,
          1,
          1,
          1
        ],
        "baseColorTexture": {
          "index": 0,
          "texCoord": 0
        },
        "metallicFactor": 0.020007621999999999,
        "roughnessFactor": 0.33708079270000002
      }
    }
  ],
  "meshes": [
    {
      "primitives": [
        {
          "attributes": {
            "NORMAL": 1,
            "POSITION": 0,
            "TANGENT": 2,
            "TEXCOORD_0": 3
          },
          "indices": 4,
          "material": 0,
          "mode": 4
        }
      ]
    }
  ],
  "nodes": [
    {
      "children": [
        1
      ],
      "name": "RootNode (gltf orientation matrix)",
      "rotation": [
        -0.70710678118654746,
        -0,
        -0,
        0.70710678118654757
      ]
    },
    {
      "children": [
        2
      ],
      "name": "RootNode (model correction matrix)"
    },
    {
      "children": [
        3
      ],
      "name": "Oil on Canvus of Caroline Scott Harrison - Preview.obj.cleaner.materialmerger.gles"
    },
    {
      "mesh": 0,
      "name": ""
    }
  ],
  "samplers": [
    {
      "magFilter": 9729,
      "minFilter": 9987,
      "wrapS": 10497,
      "wrapT": 10497
    }
  ],
  "scene": 0,
  "scenes": [
    {
      "name": "OSG_Scene",
      "nodes": [
        0
      ]
    }
  ],
  "textures": [
    {
      "sampler": 0,
      "source": 0
    }
  ]
}

