{
  "accessors": [
    {
      "bufferView": 2,
      "componentType": 5126,
      "count": 2178,
      "max": [
        149.13288879394531,
        2.9061019420623779,
        91.887718200683594
      ],
      "min": [
        -149.105224609375,
        -0.41921800374984741,
        -91.913558959960938
      ],
      "type": "VEC3"
    },
    {
      "bufferView": 2,
      "byteOffset": 26136,
      "componentType": 5126,
      "count": 2178,
      "max": [
        0.99999487400054932,
        1,
        0.99969953298568726
      ],
      "min": [
        -0.99988251924514771,
        -0.9999815821647644,
        -0.99998635053634644
      ],
      "type": "VEC3"
    },
    {
      "bufferView": 3,
      "componentType": 5126,
      "count": 2178,
      "max": [
        0.99999982118606567,
        0.58854043483734131,
        1,
        1
      ],
      "min": [
        -1,
        -0.66478639841079712,
        -0.99998968839645386,
        -1
      ],
      "type": "VEC4"
    },
    {
      "bufferView": 1,
      "componentType": 5126,
      "count": 2178,
      "max": [
        0.91296905279159546,
        0.99949997663497925
      ],
      "min": [
        0.00050000002374872565,
        0.00049996376037597656
      ],
      "type": "VEC2"
    },
    {
      "bufferView": 1,
      "byteOffset": 17424,
      "componentType": 5126,
      "count": 2178,
      "max": [
        0.91296905279159546,
        0.99949997663497925
      ],
      "min": [
        0.00050000002374872565,
        0.00049996376037597656
      ],
      "type": "VEC2"
    },
    {
      "bufferView": 1,
      "byteOffset": 34848,
      "componentType": 5126,
      "count": 2178,
      "max": [
        0.91296905279159546,
        0.99949997663497925
      ],
      "min": [
        0.00050000002374872565,
        0.00049996376037597656
      ],
      "type": "VEC2"
    },
    {
      "bufferView": 1,
      "byteOffset": 52272,
      "componentType": 5126,
      "count": 2178,
      "max": [
        0.91296905279159546,
        0.99949997663497925
      ],
      "min": [
        0.00050000002374872565,
        0.00049996376037597656
      ],
      "type": "VEC2"
    },
    {
      "bufferView": 0,
      "componentType": 5125,
      "count": 11424,
      "max": [
        2177
      ],
      "min": [
        0
      ],
      "type": "SCALAR"
    }
  ],
  "asset": {
    "extras": {
      "author": "Seismic_Creations (https://sketchfab.com/Seismic_Creations)",
      "license": "CC-BY-4.0 (http://creativecommons.org/licenses/by/4.0/)",
      "source": "https://sketchfab.com/3d-models/carpet-1e134a218e624916afdbaf9c0db703fa",
      "title": "Carpet."
    },
    "generator": "Sketchfab-8.60.0",
    "version": "2.0"
  },
  "bufferViews": [
    {
      "buffer": 0,
      "byteLength": 45696,
      "byteOffset": 0,
      "name": "floatBufferViews",
      "target": 34963
    },
    {
      "buffer": 0,
      "byteLength": 69696,
      "byteOffset": 45696,
      "byteStride": 8,
      "name": "floatBufferViews",
      "target": 34962
    },
    {
      "buffer": 0,
      "byteLength": 52272,
      "byteOffset": 115392,
      "byteStride": 12,
      "name": "floatBufferViews",
      "target": 34962
    },
    {
      "buffer": 0,
      "byteLength": 34848,
      "byteOffset": 167664,
      "byteStride": 16,
      "name": "floatBufferViews",
      "target": 34962
    }
  ],
  "buffers": [
    {
      "byteLength": 202512,
      "uri": "scene.bin"
    }
  ],
  "images": [
    {
      "uri": "textures/carpet_mtl_baseColor.jpeg"
    },
    {
      "uri": "textures/carpet_mtl_metallicRoughness.png"
    },
    {
      "uri": "textures/carpet_mtl_normal.jpeg"
    }
  ],
  "materials": [
    {
      "doubleSided": true,
      "emissiveFactor": [
        0,
        0,
        0
      ],
      "name": "carpet_mtl",
      "normalTexture": {
        "index": 2,
        "scale": 1,
        "texCoord": 0
      },
      "pbrMetallicRoughness": {
        "baseColorFactor": [
          1,
          1,
          1,
          1
        ],
        "baseColorTexture": {
          "index": 0,
          "texCoord": 0
        },
        "metallicFactor": 1,
        "metallicRoughnessTexture": {
          "index": 1,
          "texCoord": 0
        },
        "roughnessFactor": 1
      }
    }
  ],
  "meshes": [
    {
      "primitives": [
        {
          "attributes": {
            "NORMAL": 1,
            "POSITION": 0,
            "TANGENT": 2,
            "TEXCOORD_0": 3,
            "TEXCOORD_1": 4,
            "TEXCOORD_2": 5,
            "TEXCOORD_3": 6
          },
          "indices": 7,
          "material": 0,
          "mode": 4
        }
      ]
    }
  ],
  "nodes": [
    {
      "children": [
        1
      ],
      "name": "RootNode (gltf orientation matrix)",
      "rotation": [
        -0.70710678118654746,
        -0,
        -0,
        0.70710678118654757
      ]
    },
    {
      "children": [
        2
      ],
      "name": "RootNode (model correction matrix)"
    },
    {
      "children": [
        3
      ],
      "name": "root"
    },
    {
      "children": [
        4
      ],
      "matrix": [
        1,
        0,
        0,
        0,
        0,
        2.2204460492503131e-16,
        1,
        0,
        0,
        -1,
        2.2204460492503131e-16,
        0,
        0,
        0,
        0,
        1
      ],
      "name": "GLTF_SceneRootNode"
    },
    {
      "children": [
        5
      ],
      "matrix": [
        0.0068879998289048672,
        0,
        0,
        0,
        0,
        0.0068879998289048672,
        0,
        0,
        0,
        0,
        0.0068879998289048672,
        0,
        0,
        0,
        0,
        1
      ],
      "name": "Carpet_LP_2"
    },
    {
      "mesh": 0,
      "name": ""
    }
  ],
  "samplers": [
    {
      "magFilter": 9729,
      "minFilter": 9987,
      "wrapS": 10497,
      "wrapT": 10497
    }
  ],
  "scene": 0,
  "scenes": [
    {
      "name": "OSG_Scene",
      "nodes": [
        0
      ]
    }
  ],
  "textures": [
    {
      "sampler": 0,
      "source": 0
    },
    {
      "sampler": 0,
      "source": 1
    },
    {
      "sampler": 0,
      "source": 2
    }
  ]
}

