{
  "accessors": [
    {
      "bufferView": 2,
      "componentType": 5126,
      "count": 1858,
      "max": [
        25.856861114501953,
        1.4197788238525391,
        19.399856567382812
      ],
      "min": [
        -2.6314659118652344,
        -61.959793090820312,
        -16.181495666503906
      ],
      "type": "VEC3"
    },
    {
      "bufferView": 2,
      "byteOffset": 22296,
      "componentType": 5126,
      "count": 1858,
      "max": [
        1,
        1,
        1
      ],
      "min": [
        -1,
        -1,
        -1
      ],
      "type": "VEC3"
    },
    {
      "bufferView": 1,
      "componentType": 5126,
      "count": 1858,
      "max": [
        1.002236008644104,
        0.99286198616027832
      ],
      "min": [
        0.0099999997764825821,
        -1.1808407306671143
      ],
      "type": "VEC2"
    },
    {
      "bufferView": 0,
      "componentType": 5125,
      "count": 4386,
      "max": [
        1857
      ],
      "min": [
        0
      ],
      "type": "SCALAR"
    },
    {
      "bufferView": 2,
      "byteOffset": 44592,
      "componentType": 5126,
      "count": 48,
      "max": [
        9.8874664306640625,
        10.043352127075195,
        23.548860549926758
      ],
      "min": [
        -9.8874664306640625,
        -10.043352127075195,
        0
      ],
      "type": "VEC3"
    },
    {
      "bufferView": 2,
      "byteOffset": 45168,
      "componentType": 5126,
      "count": 48,
      "max": [
        1,
        1,
        1
      ],
      "min": [
        -1,
        -1,
        -1
      ],
      "type": "VEC3"
    },
    {
      "bufferView": 1,
      "byteOffset": 14864,
      "componentType": 5126,
      "count": 48,
      "max": [
        0.97138220071792603,
        0.99000000953674316
      ],
      "min": [
        0.0099999997764825821,
        0.0099999997764825821
      ],
      "type": "VEC2"
    },
    {
      "bufferView": 0,
      "byteOffset": 17544,
      "componentType": 5125,
      "count": 84,
      "max": [
        47
      ],
      "min": [
        0
      ],
      "type": "SCALAR"
    },
    {
      "bufferView": 2,
      "byteOffset": 45744,
      "componentType": 5126,
      "count": 5676,
      "max": [
        16.792037963867188,
        16.336666107177734,
        17.901220321655273
      ],
      "min": [
        -16.457708358764648,
        -16.051364898681641,
        -1.0027080277197342e-09
      ],
      "type": "VEC3"
    },
    {
      "bufferView": 2,
      "byteOffset": 113856,
      "componentType": 5126,
      "count": 5676,
      "max": [
        0.99266999959945679,
        0.99928873777389526,
        0.99997538328170776
      ],
      "min": [
        -0.99267119169235229,
        -0.99928814172744751,
        -0.99997532367706299
      ],
      "type": "VEC3"
    },
    {
      "bufferView": 1,
      "byteOffset": 15248,
      "componentType": 5126,
      "count": 5676,
      "max": [
        1,
        1
      ],
      "min": [
        0,
        0
      ],
      "type": "VEC2"
    },
    {
      "bufferView": 0,
      "byteOffset": 17880,
      "componentType": 5125,
      "count": 15480,
      "max": [
        5675
      ],
      "min": [
        0
      ],
      "type": "SCALAR"
    },
    {
      "bufferView": 2,
      "byteOffset": 181968,
      "componentType": 5126,
      "count": 550,
      "max": [
        3.3662204742431641,
        5.0011529922485352,
        23.9815673828125
      ],
      "min": [
        -2.2335608005523682,
        -3.9653394222259521,
        0.75771743059158325
      ],
      "type": "VEC3"
    },
    {
      "bufferView": 2,
      "byteOffset": 188568,
      "componentType": 5126,
      "count": 550,
      "max": [
        0.99986153841018677,
        0.99956536293029785,
        0.43440231680870056
      ],
      "min": [
        -0.99999153614044189,
        -0.99965155124664307,
        -0.42998805642127991
      ],
      "type": "VEC3"
    },
    {
      "bufferView": 1,
      "byteOffset": 60656,
      "componentType": 5126,
      "count": 550,
      "max": [
        1,
        1
      ],
      "min": [
        0,
        0
      ],
      "type": "VEC2"
    },
    {
      "bufferView": 0,
      "byteOffset": 79800,
      "componentType": 5125,
      "count": 2400,
      "max": [
        549
      ],
      "min": [
        0
      ],
      "type": "SCALAR"
    },
    {
      "bufferView": 2,
      "byteOffset": 195168,
      "componentType": 5126,
      "count": 420,
      "max": [
        4.1046524047851562,
        5.8611459732055664,
        25.007699966430664
      ],
      "min": [
        -3.0390520095825195,
        -4.7775883674621582,
        22.258518218994141
      ],
      "type": "VEC3"
    },
    {
      "bufferView": 2,
      "byteOffset": 200208,
      "componentType": 5126,
      "count": 420,
      "max": [
        0.99983960390090942,
        0.98511087894439697,
        0.99635040760040283
      ],
      "min": [
        -0.99879270792007446,
        -0.99186563491821289,
        -0.58173549175262451
      ],
      "type": "VEC3"
    },
    {
      "bufferView": 1,
      "byteOffset": 65056,
      "componentType": 5126,
      "count": 420,
      "max": [
        1,
        0.93301302194595337
      ],
      "min": [
        0,
        0.066987000405788422
      ],
      "type": "VEC2"
    },
    {
      "bufferView": 0,
      "byteOffset": 89400,
      "componentType": 5125,
      "count": 1080,
      "max": [
        419
      ],
      "min": [
        0
      ],
      "type": "SCALAR"
    },
    {
      "bufferView": 2,
      "byteOffset": 205248,
      "componentType": 5126,
      "count": 1858,
      "max": [
        25.856861114501953,
        1.4197788238525391,
        19.399856567382812
      ],
      "min": [
        -2.6314659118652344,
        -61.959793090820312,
        -16.181495666503906
      ],
      "type": "VEC3"
    },
    {
      "bufferView": 2,
      "byteOffset": 227544,
      "componentType": 5126,
      "count": 1858,
      "max": [
        1,
        1,
        1
      ],
      "min": [
        -1,
        -1,
        -1
      ],
      "type": "VEC3"
    },
    {
      "bufferView": 1,
      "byteOffset": 68416,
      "componentType": 5126,
      "count": 1858,
      "max": [
        1.002236008644104,
        0.99286198616027832
      ],
      "min": [
        0.0099999997764825821,
        -1.1808407306671143
      ],
      "type": "VEC2"
    },
    {
      "bufferView": 0,
      "byteOffset": 93720,
      "componentType": 5125,
      "count": 4386,
      "max": [
        1857
      ],
      "min": [
        0
      ],
      "type": "SCALAR"
    }
  ],
  "asset": {
    "extras": {
      "author": "Connor Wassall (https://sketchfab.com/connorwassall)",
      "license": "CC-BY-4.0 (http://creativecommons.org/licenses/by/4.0/)",
      "source": "https://sketchfab.com/3d-models/waiting-room-chairs-fd6f2c8d76ef4a1a8b932516284d50b0",
      "title": "Waiting Room Chairs"
    },
    "generator": "Sketchfab-8.83.0",
    "version": "2.0"
  },
  "bufferViews": [
    {
      "buffer": 0,
      "byteLength": 111264,
      "byteOffset": 0,
      "name": "floatBufferViews",
      "target": 34963
    },
    {
      "buffer": 0,
      "byteLength": 83280,
      "byteOffset": 111264,
      "byteStride": 8,
      "name": "floatBufferViews",
      "target": 34962
    },
    {
      "buffer": 0,
      "byteLength": 249840,
      "byteOffset": 194544,
      "byteStride": 12,
      "name": "floatBufferViews",
      "target": 34962
    }
  ],
  "buffers": [
    {
      "byteLength": 444384,
      "uri": "scene.bin"
    }
  ],
  "images": [
    {
      "uri": "textures/01_-_Default_baseColor.png"
    },
    {
      "uri": "textures/02_-_Default_baseColor.png"
    },
    {
      "uri": "textures/Fronds_baseColor.png"
    }
  ],
  "materials": [
    {
      "doubleSided": true,
      "emissiveFactor": [
        0,
        0,
        0
      ],
      "name": "01_-_Default",
      "pbrMetallicRoughness": {
        "baseColorFactor": [
          1,
          1,
          1,
          1
        ],
        "baseColorTexture": {
          "index": 0,
          "texCoord": 0
        },
        "metallicFactor": 0,
        "roughnessFactor": 0.59999999999999998
      }
    },
    {
      "doubleSided": true,
      "emissiveFactor": [
        0,
        0,
        0
      ],
      "name": "02_-_Default",
      "pbrMetallicRoughness": {
        "baseColorFactor": [
          1,
          1,
          1,
          1
        ],
        "baseColorTexture": {
          "index": 1,
          "texCoord": 0
        },
        "metallicFactor": 0,
        "roughnessFactor": 0.59999999999999998
      }
    },
    {
      "doubleSided": true,
      "emissiveFactor": [
        0,
        0,
        0
      ],
      "name": "Fronds",
      "pbrMetallicRoughness": {
        "baseColorFactor": [
          1,
          1,
          1,
          1
        ],
        "baseColorTexture": {
          "index": 2,
          "texCoord": 0
        },
        "metallicFactor": 0,
        "roughnessFactor": 0.59999999999999998
      }
    },
    {
      "doubleSided": true,
      "emissiveFactor": [
        0,
        0,
        0
      ],
      "name": "Stalks",
      "pbrMetallicRoughness": {
        "baseColorFactor": [
          0.33725500000000003,
          0.019607800000000002,
          0.439216,
          1
        ],
        "metallicFactor": 0,
        "roughnessFactor": 0.59999999999999998
      }
    },
    {
      "doubleSided": true,
      "emissiveFactor": [
        0,
        0,
        0
      ],
      "name": "Flowers",
      "pbrMetallicRoughness": {
        "baseColorFactor": [
          0.90980399999999995,
          0.478431,
          0.90588199999999997,
          1
        ],
        "metallicFactor": 0,
        "roughnessFactor": 0.59999999999999998
      }
    }
  ],
  "meshes": [
    {
      "name": "Box001_01 - Default_0",
      "primitives": [
        {
          "attributes": {
            "NORMAL": 1,
            "POSITION": 0,
            "TEXCOORD_0": 2
          },
          "indices": 3,
          "material": 0,
          "mode": 4
        }
      ]
    },
    {
      "name": "Box002_02 - Default_0",
      "primitives": [
        {
          "attributes": {
            "NORMAL": 5,
            "POSITION": 4,
            "TEXCOORD_0": 6
          },
          "indices": 7,
          "material": 1,
          "mode": 4
        }
      ]
    },
    {
      "name": "Foliage001_Fronds_0",
      "primitives": [
        {
          "attributes": {
            "NORMAL": 9,
            "POSITION": 8,
            "TEXCOORD_0": 10
          },
          "indices": 11,
          "material": 2,
          "mode": 4
        }
      ]
    },
    {
      "name": "Foliage001_Stalks_0",
      "primitives": [
        {
          "attributes": {
            "NORMAL": 13,
            "POSITION": 12,
            "TEXCOORD_0": 14
          },
          "indices": 15,
          "material": 3,
          "mode": 4
        }
      ]
    },
    {
      "name": "Foliage001_Flowers_0",
      "primitives": [
        {
          "attributes": {
            "NORMAL": 17,
            "POSITION": 16,
            "TEXCOORD_0": 18
          },
          "indices": 19,
          "material": 4,
          "mode": 4
        }
      ]
    },
    {
      "name": "Box003_01 - Default_0",
      "primitives": [
        {
          "attributes": {
            "NORMAL": 21,
            "POSITION": 20,
            "TEXCOORD_0": 22
          },
          "indices": 23,
          "material": 0,
          "mode": 4
        }
      ]
    }
  ],
  "nodes": [
    {
      "children": [
        1
      ],
      "name": "RootNode (gltf orientation matrix)",
      "rotation": [
        -0.70710678118654746,
        -0,
        -0,
        0.70710678118654757
      ]
    },
    {
      "children": [
        2
      ],
      "name": "RootNode (model correction matrix)"
    },
    {
      "children": [
        3
      ],
      "matrix": [
        1,
        0,
        0,
        0,
        0,
        0,
        1,
        0,
        0,
        -1,
        0,
        0,
        0,
        0,
        0,
        1
      ],
      "name": "Waiting Room Chairs.FBX"
    },
    {
      "children": [
        4,
        6,
        8,
        12
      ],
      "name": "RootNode"
    },
    {
      "children": [
        5
      ],
      "matrix": [
        1,
        0,
        0,
        0,
        0,
        2.2204460492503131e-16,
        -1,
        0,
        0,
        1,
        2.2204460492503131e-16,
        0,
        2.9464988708496094,
        15.279044151306152,
        -76.96875,
        1
      ],
      "name": "Box001"
    },
    {
      "mesh": 0,
      "name": "Box001_01 - Default_0"
    },
    {
      "children": [
        7
      ],
      "matrix": [
        1,
        0,
        0,
        0,
        0,
        2.2204460492503131e-16,
        -1,
        0,
        0,
        1,
        2.2204460492503131e-16,
        0,
        10.64605712890625,
        0,
        0.040832996368408203,
        1
      ],
      "name": "Box002"
    },
    {
      "mesh": 1,
      "name": "Box002_02 - Default_0"
    },
    {
      "children": [
        9,
        10,
        11
      ],
      "matrix": [
        1,
        0,
        0,
        0,
        0,
        2.2204460492503131e-16,
        -1,
        0,
        0,
        1,
        2.2204460492503131e-16,
        0,
        10.338787078857422,
        21.808235168457031,
        0.0053111342713236809,
        1
      ],
      "name": "Foliage001"
    },
    {
      "mesh": 2,
      "name": "Foliage001_Fronds_0"
    },
    {
      "mesh": 3,
      "name": "Foliage001_Stalks_0"
    },
    {
      "mesh": 4,
      "name": "Foliage001_Flowers_0"
    },
    {
      "children": [
        13
      ],
      "matrix": [
        1,
        0,
        0,
        0,
        0,
        2.2204460492503131e-16,
        -1,
        0,
        0,
        1,
        2.2204460492503131e-16,
        0,
        2.9464988708496094,
        15.279044151306152,
        16.00390625,
        1
      ],
      "name": "Box003"
    },
    {
      "mesh": 5,
      "name": "Box003_01 - Default_0"
    }
  ],
  "samplers": [
    {
      "magFilter": 9729,
      "minFilter": 9987,
      "wrapS": 10497,
      "wrapT": 10497
    }
  ],
  "scene": 0,
  "scenes": [
    {
      "name": "OSG_Scene",
      "nodes": [
        0
      ]
    }
  ],
  "textures": [
    {
      "sampler": 0,
      "source": 0
    },
    {
      "sampler": 0,
      "source": 1
    },
    {
      "sampler": 0,
      "source": 2
    }
  ]
}

