{
  "accessors": [
    {
      "bufferView": 2,
      "componentType": 5126,
      "count": 2339,
      "max": [
        1.3764528036117554,
        1.017132043838501,
        1.3828986883163452
      ],
      "min": [
        -1.4828648567199707,
        -1.0353399515151978,
        -0.92213523387908936
      ],
      "type": "VEC3"
    },
    {
      "bufferView": 2,
      "byteOffset": 28068,
      "componentType": 5126,
      "count": 2339,
      "max": [
        1,
        1,
        1
      ],
      "min": [
        -1,
        -1,
        -1
      ],
      "type": "VEC3"
    },
    {
      "bufferView": 3,
      "componentType": 5126,
      "count": 2339,
      "max": [
        1,
        1,
        1,
        1
      ],
      "min": [
        -1,
        -1,
        -0.99925142526626587,
        -1
      ],
      "type": "VEC4"
    },
    {
      "bufferView": 1,
      "componentType": 5126,
      "count": 2339,
      "max": [
        0.99047541618347168,
        0.9902302622795105
      ],
      "min": [
        0.0083390483632683754,
        0.0087432404980063438
      ],
      "type": "VEC2"
    },
    {
      "bufferView": 0,
      "componentType": 5125,
      "count": 6903,
      "max": [
        2338
      ],
      "min": [
        0
      ],
      "type": "SCALAR"
    }
  ],
  "asset": {
    "extras": {
      "author": "Dmytro Dobrovolskyi (https://sketchfab.com/Dima12)",
      "license": "CC-BY-4.0 (http://creativecommons.org/licenses/by/4.0/)",
      "source": "https://sketchfab.com/3d-models/soviet-vintage-filmstrip-projector-firefly-20522093ca104af39e00fcdcaa400e0b",
      "title": "Soviet Vintage Filmstrip projector \"Firefly\""
    },
    "generator": "Sketchfab-7.80.0",
    "version": "2.0"
  },
  "bufferViews": [
    {
      "buffer": 0,
      "byteLength": 27612,
      "byteOffset": 0,
      "name": "floatBufferViews",
      "target": 34963
    },
    {
      "buffer": 0,
      "byteLength": 18712,
      "byteOffset": 27612,
      "byteStride": 8,
      "name": "floatBufferViews",
      "target": 34962
    },
    {
      "buffer": 0,
      "byteLength": 56136,
      "byteOffset": 46324,
      "byteStride": 12,
      "name": "floatBufferViews",
      "target": 34962
    },
    {
      "buffer": 0,
      "byteLength": 37424,
      "byteOffset": 102460,
      "byteStride": 16,
      "name": "floatBufferViews",
      "target": 34962
    }
  ],
  "buffers": [
    {
      "byteLength": 139884,
      "uri": "scene.bin"
    }
  ],
  "images": [
    {
      "uri": "textures/filmoscope_low_baseColor.jpeg"
    },
    {
      "uri": "textures/filmoscope_low_metallicRoughness.png"
    },
    {
      "uri": "textures/filmoscope_low_normal.png"
    }
  ],
  "materials": [
    {
      "doubleSided": true,
      "emissiveFactor": [
        0,
        0,
        0
      ],
      "name": "filmoscope_low",
      "normalTexture": {
        "index": 2,
        "scale": 1,
        "texCoord": 0
      },
      "pbrMetallicRoughness": {
        "baseColorFactor": [
          1,
          1,
          1,
          1
        ],
        "baseColorTexture": {
          "index": 0,
          "texCoord": 0
        },
        "metallicFactor": 1,
        "metallicRoughnessTexture": {
          "index": 1,
          "texCoord": 0
        },
        "roughnessFactor": 1
      }
    }
  ],
  "meshes": [
    {
      "name": "filmoscope_low_filmoscope_low_0",
      "primitives": [
        {
          "attributes": {
            "NORMAL": 1,
            "POSITION": 0,
            "TANGENT": 2,
            "TEXCOORD_0": 3
          },
          "indices": 4,
          "material": 0,
          "mode": 4
        }
      ]
    }
  ],
  "nodes": [
    {
      "children": [
        1
      ],
      "name": "RootNode (gltf orientation matrix)",
      "rotation": [
        -0.70710678118654746,
        -0,
        -0,
        0.70710678118654757
      ]
    },
    {
      "children": [
        2
      ],
      "name": "RootNode (model correction matrix)"
    },
    {
      "children": [
        3
      ],
      "matrix": [
        1,
        0,
        0,
        0,
        0,
        0,
        1,
        0,
        0,
        -1,
        0,
        0,
        0,
        0,
        0,
        1
      ],
      "name": "c7df89006c4e4d339aa44c539635d742.fbx"
    },
    {
      "children": [
        4
      ],
      "name": "RootNode"
    },
    {
      "children": [
        5
      ],
      "matrix": [
        3.4001383781433105,
        0,
        0,
        0,
        0,
        -1.6292066385450466e-06,
        -9.9999990463255521,
        0,
        0,
        8.999999999999881,
        -1.4662861145264827e-06,
        0,
        0,
        -0.35296356678009033,
        0,
        1
      ],
      "name": "filmoscope_low"
    },
    {
      "mesh": 0,
      "name": "filmoscope_low_filmoscope_low_0"
    }
  ],
  "samplers": [
    {
      "magFilter": 9729,
      "minFilter": 9987,
      "wrapS": 10497,
      "wrapT": 10497
    }
  ],
  "scene": 0,
  "scenes": [
    {
      "name": "OSG_Scene",
      "nodes": [
        0
      ]
    }
  ],
  "textures": [
    {
      "sampler": 0,
      "source": 0
    },
    {
      "sampler": 0,
      "source": 1
    },
    {
      "sampler": 0,
      "source": 2
    }
  ]
}

